<?xml version="1.0" encoding="UTF-8"?>
<svg xmlns="http://www.w3.org/2000/svg" version="1.1" viewBox="0 0 708.66 708.66">
  <!-- Generator: Adobe Illustrator 29.8.5, SVG Export Plug-In . SVG Version: 2.1.1 Build 2)  -->
  <defs>
    <style>
      .st0, .st1 {
        stroke: #000;
        stroke-linejoin: bevel;
      }

      .st2 {
        display: none;
      }

      .st1 {
        fill: none;
      }
    </style>
  </defs>
  <g id="Calque_9" class="st2">
    <path class="st1" d="M479.64,340.69"/>
    <path class="st1" d="M318.27,270.58l92.98,206.28c-30.54,12.91-63.81,17.77-102.03,2.06l14.64-43.15c7.66,2.9,15.82,4.92,24.41,6.14l-3.84,14.41c6.8.8,13.25.8,19.35,0l-45.51-185.73Z"/>
    <path class="st1" d="M279.06,87.34l84.88,189.67c23.8,4.73,46.66,17.37,68.09,41.83l-152.98-231.5Z"/>
    <path class="st1" d="M237.55,331.64v31.5h-12.13c-2.13,29.19,72.59,156.76,111.84,218.11-29.47-95.37-71.93-214.26-65.73-249.99l-33.98.39Z"/>
    <path class="st1" d="M306.55,236.34v53.24c-11.04,8.13-18.6,18.11-24.37,29.03h-50.05c9.79-35.43,43.43-72.6,74.42-82.26Z"/>
    <path class="st1" d="M483.21,331.26c-15.16,93.83-57.82,169.37-94.54,249.99,21.37-88.69,43.12-125.05,48.21-249.99h46.33Z"/>
    <path class="st1" d="M361.5,450.53"/>
    <path class="st1" d="M343.62,450.53"/>
    <path class="st1" d="M405.4,469.53"/>
    <path class="st0" d="M307.43,471.09"/>
  </g>
  <g id="Calque_7">
    <path d="M479.64,340.69"/>
    <path d="M318.27,270.58l92.98,206.28c-30.54,12.91-63.81,17.77-102.03,2.06l14.64-43.15c7.66,2.9,15.82,4.92,24.41,6.14l-3.84,14.41c6.8.8,13.25.8,19.35,0l-45.51-185.73Z"/>
    <path d="M279.06,87.34l84.88,189.67c23.8,4.73,46.66,17.37,68.09,41.83l-152.98-231.5Z"/>
    <path d="M237.55,331.64v31.5h-12.13c-2.13,29.19,72.59,156.76,111.84,218.11-29.47-95.37-71.93-214.26-65.73-249.99l-33.98.39Z"/>
    <path d="M306.55,236.34v53.24c-11.04,8.13-18.6,18.11-24.37,29.03h-50.05c9.79-35.43,43.43-72.6,74.42-82.26Z"/>
    <path d="M483.21,331.26c-15.16,93.83-57.82,169.37-94.54,249.99,21.37-88.69,43.12-125.05,48.21-249.99h46.33Z"/>
    <path d="M361.5,450.53"/>
    <path d="M343.62,450.53"/>
    <path d="M405.4,469.53"/>
    <path d="M307.43,471.09"/>
  </g>
</svg>
