<?xml version="1.0" encoding="UTF-8"?>
<svg id="typo_angle_droit" data-name="typo angle droit" xmlns="http://www.w3.org/2000/svg" viewBox="0 0 435.91 164.59">
  <defs>
    <style>
      .cls-1 {
        fill: none;
        stroke: #1d1d1b;
      }
    </style>
  </defs>
  <path class="cls-1" d="M.5,108.39V.5h45.74s45.49,0,45.49,0h3.01v56.6h-33.02s0-1.48,0-1.48v-13.86l-14.18-16.28-14.07,16.28v79.57l14.07,16.17,14.18-16.17v-21.36h-15.58v-22.69h48.6v85.22H.5v-54.11Z"/>
  <path class="cls-1" d="M119,162.5h-1.28V.5h47.12s45.85,0,45.85,0h1.28v162h-92.97ZM178.98,121.33V41.75l-14.23-16.25-14.03,16.25v79.57l14.03,16.17,14.23-16.17Z"/>
  <path class="cls-1" d="M259.92,121.34l-30.48-35.41V.5h33.12v1.56l-.03,71.79,13.95,16.28,13.95-16.28V.5h33.27v84.99l-30.75,35.87v41.13s-1.27,0-1.27,0h-31.74v-41.16Z"/>
  <path class="cls-1" d="M341.16.5h94.25v162h-33.18v-62.57s-27.9,0-27.9,0v62.57h-33.18V.5ZM402.23,77.27v-35.52l-13.95-16.28-13.95,16.28v35.52h27.9Z"/>
</svg>