<?xml version="1.0" encoding="UTF-8"?>
<svg id="typo_angle_droit" xmlns="http://www.w3.org/2000/svg" version="1.1" viewBox="0 0 708.66 708.66">
  <!-- Generator: Adobe Illustrator 29.8.5, SVG Export Plug-In . SVG Version: 2.1.1 Build 2)  -->
  <defs>
    <style>
      .st0 {
        fill: none;
        stroke: #1d1d1b;
        stroke-miterlimit: 10;
        stroke-width: .1px;
      }

      .st1 {
        fill: #1d1d1b;
      }
    </style>
  </defs>
  <path class="st1" d="M131.51,380.22v-107.89h45.74s45.49,0,45.49,0h3.01v56.6h-33.02s0-1.48,0-1.48v-13.86l-14.18-16.28-14.07,16.28v79.57l14.07,16.17,14.18-16.17v-21.36h-15.58v-22.69h48.6v85.22h-94.25v-54.11Z"/>
  <path class="st1" d="M250.01,434.33h-1.28v-162h47.12s45.85,0,45.85,0h1.28v162h-92.97ZM309.98,393.16v-79.57l-14.23-16.25-14.03,16.25v79.57l14.03,16.17,14.23-16.17Z"/>
  <path class="st1" d="M390.92,393.17l-30.48-35.41v-85.43h33.12v1.56l-.03,71.79,13.95,16.28,13.95-16.28v-73.35h33.27v84.99l-30.75,35.87v41.13s-1.27,0-1.27,0h-31.74v-41.16Z"/>
  <path class="st1" d="M472.16,272.33h94.25v162h-33.18v-62.57s-27.9,0-27.9,0v62.57h-33.18v-162ZM533.24,349.11v-35.52l-13.95-16.28-13.95,16.28v35.52h27.9Z"/>
  <path class="st1" d="M454.92,383.77"/>
  <path class="st0" d="M522.25,420.14"/>
  <path class="st0" d="M536.33,436.42"/>
</svg>